<?xml version="1.0" encoding="UTF-8" standalone="no"?><!DOCTYPE svg PUBLIC "-//W3C//DTD SVG 1.1//EN" "http://www.w3.org/Graphics/SVG/1.1/DTD/svg11.dtd"><svg width="100%" height="100%" viewBox="0 0 3471 139" version="1.1" xmlns="http://www.w3.org/2000/svg" xmlns:xlink="http://www.w3.org/1999/xlink" xml:space="preserve" xmlns:serif="http://www.serif.com/" style="fill-rule:evenodd;clip-rule:evenodd;stroke-linejoin:round;stroke-miterlimit:2;"><path d="M433.761,138.889l-433.761,-0c0,-0 21.819,-27.946 45.882,-58.766c39.481,-50.566 100.057,-80.123 164.21,-80.123c4.52,0 9.056,0 13.576,0c64.154,-0 124.73,29.557 164.21,80.123c24.064,30.82 45.883,58.766 45.883,58.766Zm433.76,-0l-433.76,-0c-0,-0 21.819,-27.946 45.882,-58.766c39.481,-50.566 100.057,-80.123 164.21,-80.123c4.52,0 9.056,0 13.576,0c64.154,-0 124.729,29.557 164.21,80.123c24.064,30.82 45.882,58.766 45.882,58.766Zm867.522,-0l-433.761,-0c0,-0 21.819,-27.946 45.883,-58.766c39.48,-50.566 100.056,-80.123 164.21,-80.123c4.52,0 9.056,0 13.576,0c64.153,-0 124.729,29.557 164.21,80.123c24.063,30.82 45.882,58.766 45.882,58.766Zm1735.04,-0l-433.761,-0c0,-0 21.819,-27.946 45.883,-58.766c39.48,-50.566 100.056,-80.123 164.21,-80.123c4.52,0 9.056,0 13.576,0c64.153,-0 124.729,29.557 164.21,80.123c24.063,30.82 45.882,58.766 45.882,58.766Zm-867.522,-0l-433.76,-0c-0,-0 21.819,-27.946 45.882,-58.766c39.481,-50.566 100.057,-80.123 164.21,-80.123c4.52,0 9.056,0 13.576,0c64.154,-0 124.729,29.557 164.21,80.123c24.064,30.82 45.882,58.766 45.882,58.766Zm-1301.28,-0l-433.761,-0c0,-0 21.819,-27.946 45.883,-58.766c39.481,-50.566 100.056,-80.123 164.21,-80.123c4.52,0 9.056,0 13.576,0c64.153,-0 124.729,29.557 164.21,80.123c24.063,30.82 45.882,58.766 45.882,58.766Zm867.522,-0l-433.761,-0c-0,-0 21.819,-27.946 45.882,-58.766c39.481,-50.566 100.057,-80.123 164.21,-80.123c4.52,0 9.056,0 13.576,0c64.154,-0 124.73,29.557 164.21,80.123c24.064,30.82 45.883,58.766 45.883,58.766Zm867.521,-0l-433.761,-0c0,-0 21.819,-27.946 45.883,-58.766c39.481,-50.566 100.056,-80.123 164.21,-80.123c4.52,0 9.056,0 13.576,0c64.153,-0 124.729,29.557 164.21,80.123c24.063,30.82 45.882,58.766 45.882,58.766Z" style="fill:#b3b3b5;"/></svg>