<?xml version="1.0" encoding="UTF-8" standalone="no"?><!DOCTYPE svg PUBLIC "-//W3C//DTD SVG 1.1//EN" "http://www.w3.org/Graphics/SVG/1.1/DTD/svg11.dtd"><svg width="100%" height="100%" viewBox="0 0 1871 1871" version="1.1" xmlns="http://www.w3.org/2000/svg" xmlns:xlink="http://www.w3.org/1999/xlink" xml:space="preserve" xmlns:serif="http://www.serif.com/" style="fill-rule:evenodd;clip-rule:evenodd;stroke-linejoin:round;stroke-miterlimit:2;"><path d="M934.063,454.896c-265,-0 -478.75,213.75 -478.75,478.75c-0,265 213.75,478.75 478.75,478.75c265,-0 478.75,-213.75 478.75,-478.75c-0,-265 -213.75,-478.75 -478.75,-478.75Zm-0,790c-171.25,-0 -311.251,-139.583 -311.251,-311.25c0,-171.667 139.584,-311.25 311.251,-311.25c171.666,-0 311.249,139.583 311.249,311.25c0,171.667 -140,311.25 -311.25,311.25Zm610.001,-809.584c-0,62.084 -50,111.667 -111.667,111.667c-62.083,0 -111.667,-50 -111.667,-111.666c0,-61.667 50,-111.667 111.667,-111.667c61.667,-0 111.667,50 111.667,111.666Zm317.083,113.334c-7.083,-149.584 -41.25,-282.084 -150.833,-391.25c-109.167,-109.167 -241.667,-143.334 -391.25,-150.834c-154.167,-8.75 -616.25,-8.75 -770.417,0c-149.167,7.084 -281.667,41.25 -391.25,150.417c-109.583,109.167 -143.333,241.667 -150.833,391.25c-8.75,154.167 -8.75,616.25 -0,770.417c7.083,149.583 41.25,282.083 150.833,391.25c109.583,109.167 241.667,143.333 391.25,150.833c154.167,8.75 616.25,8.75 770.417,0c149.583,-7.083 282.083,-41.25 391.25,-150.833c109.166,-109.167 143.333,-241.667 150.833,-391.25c8.75,-154.167 8.75,-615.833 -0,-770Zm-199.167,935.417c-32.5,81.666 -95.416,144.583 -177.5,177.499c-122.917,48.75 -414.583,37.5 -550.417,37.5c-135.833,0 -427.916,10.834 -550.416,-37.5c-81.667,-32.5 -144.583,-95.416 -177.5,-177.5c-48.75,-122.916 -37.5,-414.583 -37.5,-550.416c-0,-135.834 -10.833,-427.917 37.5,-550.417c32.5,-81.667 95.417,-144.583 177.5,-177.5c122.917,-48.75 414.583,-37.5 550.417,-37.5c135.833,0 427.916,-10.833 550.416,37.5c81.667,32.5 144.583,95.417 177.5,177.5c48.75,122.917 37.5,414.583 37.5,550.417c0,135.833 11.25,427.916 -37.5,550.416Z" style="fill-rule:nonzero;stroke:#fff;stroke-width:4.17px;"/></svg>