<?xml version="1.0" encoding="UTF-8" standalone="no"?><!DOCTYPE svg PUBLIC "-//W3C//DTD SVG 1.1//EN" "http://www.w3.org/Graphics/SVG/1.1/DTD/svg11.dtd"><svg width="100%" height="100%" viewBox="0 0 1520 1522" version="1.1" xmlns="http://www.w3.org/2000/svg" xmlns:xlink="http://www.w3.org/1999/xlink" xml:space="preserve" xmlns:serif="http://www.serif.com/" style="fill-rule:evenodd;clip-rule:evenodd;stroke-linejoin:round;stroke-miterlimit:2;"><path d="M623.379,1419.25c6.154,16.497 23.634,25.825 40.764,21.754c17.13,-4.071 28.544,-20.266 26.617,-37.768c-12.636,-115.166 -88.854,-293.204 -210.298,-473.711c-127.29,-189.196 -270.789,-331.348 -374.014,-380.704c-14.704,-7.002 -32.318,-2.159 -41.375,11.377c-9.056,13.536 -6.812,31.666 5.271,42.586c103.525,87.973 242.333,198.566 347.504,354.885c102.252,151.981 160.302,328.748 205.531,461.581Z" style="fill:#fff;fill-opacity:0.58;"/><path d="M725.943,1333.78c6.154,16.497 23.634,25.825 40.764,21.754c17.13,-4.071 28.544,-20.267 26.617,-37.768c-12.636,-115.166 -88.854,-293.204 -210.298,-473.711c-127.29,-189.196 -270.789,-331.348 -374.014,-380.704c-14.703,-7.002 -32.318,-2.159 -41.374,11.377c-9.057,13.536 -6.813,31.666 5.27,42.586c103.525,87.972 242.333,198.566 347.504,354.885c102.252,151.981 160.302,328.748 205.531,461.581Z" style="fill:#fff;fill-opacity:0.58;"/><path d="M824.234,1246.17c6.154,16.497 23.634,25.825 40.764,21.754c17.13,-4.071 28.543,-20.266 26.617,-37.768c-12.636,-115.166 -88.854,-293.204 -210.298,-473.711c-127.29,-189.196 -270.789,-331.348 -374.014,-380.704c-14.704,-7.002 -32.319,-2.159 -41.375,11.377c-9.056,13.536 -6.812,31.666 5.271,42.586c103.525,87.973 242.333,198.566 347.503,354.885c102.253,151.981 160.303,328.748 205.532,461.581Z" style="fill:#fff;fill-opacity:0.58;"/><path d="M937.482,1188.48c6.154,16.497 23.633,25.825 40.763,21.754c17.131,-4.071 28.544,-20.267 26.618,-37.768c-12.636,-115.166 -88.855,-293.204 -210.298,-473.711c-127.291,-189.196 -270.789,-331.348 -374.014,-380.704c-14.704,-7.002 -32.319,-2.159 -41.375,11.377c-9.056,13.536 -6.813,31.666 5.27,42.585c103.525,87.973 242.334,198.566 347.504,354.886c102.252,151.981 160.303,328.748 205.532,461.581Z" style="fill:#fff;fill-opacity:0.58;"/><path d="M1022.95,1128.65c6.154,16.497 23.633,25.825 40.764,21.754c17.13,-4.072 28.543,-20.267 26.617,-37.768c-12.636,-115.166 -88.855,-293.204 -210.298,-473.711c-127.291,-189.196 -270.789,-331.348 -374.014,-380.704c-14.704,-7.003 -32.319,-2.159 -41.375,11.377c-9.056,13.536 -6.812,31.666 5.271,42.585c103.525,87.973 242.333,198.566 347.503,354.886c102.253,151.981 160.303,328.748 205.532,461.581Z" style="fill:#fff;fill-opacity:0.58;"/><path d="M1134.06,1064.55c6.154,16.497 23.633,25.826 40.764,21.754c17.13,-4.071 28.543,-20.266 26.617,-37.768c-12.636,-115.166 -88.855,-293.204 -210.298,-473.71c-127.291,-189.197 -270.789,-331.349 -374.014,-380.705c-14.704,-7.002 -32.319,-2.159 -41.375,11.377c-9.056,13.536 -6.812,31.666 5.271,42.586c103.525,87.973 242.333,198.566 347.503,354.885c102.253,151.982 160.303,328.748 205.532,461.581Z" style="fill:#fff;fill-opacity:0.58;"/><path d="M1232.35,1004.72c6.153,16.496 23.633,25.825 40.763,21.753c17.13,-4.071 28.544,-20.266 26.618,-37.768c-12.636,-115.166 -88.855,-293.204 -210.299,-473.71c-127.29,-189.197 -270.789,-331.349 -374.014,-380.705c-14.703,-7.002 -32.318,-2.158 -41.374,11.377c-9.057,13.536 -6.813,31.666 5.27,42.586c103.525,87.973 242.333,198.566 347.504,354.885c102.252,151.982 160.303,328.748 205.532,461.582Z" style="fill:#fff;fill-opacity:0.58;"/><path d="M1339.19,957.708c6.154,16.497 23.634,25.825 40.764,21.754c17.13,-4.072 28.544,-20.267 26.617,-37.769c-12.636,-115.165 -88.854,-293.203 -210.298,-473.71c-127.29,-189.196 -270.789,-331.348 -374.014,-380.704c-14.704,-7.003 -32.318,-2.159 -41.375,11.377c-9.056,13.536 -6.812,31.666 5.271,42.585c103.525,87.973 242.333,198.566 347.504,354.885c102.252,151.982 160.302,328.749 205.531,461.582Z" style="fill:#fff;fill-opacity:0.58;"/><path d="M1449.78,889.332c6.154,16.497 23.633,25.825 40.763,21.754c17.131,-4.072 28.544,-20.267 26.618,-37.769c-12.636,-115.165 -88.855,-293.203 -210.298,-473.71c-127.291,-189.197 -270.789,-331.348 -374.014,-380.704c-14.704,-7.003 -32.319,-2.159 -41.375,11.377c-9.056,13.535 -6.813,31.666 5.27,42.585c103.525,87.973 242.334,198.566 347.504,354.885c102.253,151.982 160.303,328.749 205.532,461.582Z" style="fill:#fff;fill-opacity:0.58;"/></svg>