<?xml version="1.0" encoding="UTF-8" standalone="no"?><!DOCTYPE svg PUBLIC "-//W3C//DTD SVG 1.1//EN" "http://www.w3.org/Graphics/SVG/1.1/DTD/svg11.dtd"><svg width="100%" height="100%" viewBox="0 0 243 232" version="1.1" xmlns="http://www.w3.org/2000/svg" xmlns:xlink="http://www.w3.org/1999/xlink" xml:space="preserve" xmlns:serif="http://www.serif.com/" style="fill-rule:evenodd;clip-rule:evenodd;stroke-linejoin:round;stroke-miterlimit:2;"><path d="M172.766,157.712c5.125,14.522 19.164,23.967 34.547,23.241c15.382,-0.725 28.47,-11.449 32.206,-26.388c7.753,-33.359 2.59,-69.451 -17.735,-99.662c-22.135,-32.899 -57.504,-51.77 -94.792,-54.545c-14.007,-0.883 -27.001,7.32 -32.227,20.346c-5.226,13.026 -1.505,27.935 9.229,36.978c15.449,13.322 30.278,29.258 42.709,47.735c11.293,16.785 19.898,34.613 26.063,52.295Z" style="fill:#fff;fill-opacity:0.58;"/><path d="M72.487,140.99c7.823,12.573 24.303,16.514 36.967,8.841c12.664,-7.674 16.799,-24.107 9.275,-36.86c-1.268,-2.045 -2.553,-4.105 -3.92,-6.137c-1.368,-2.032 -2.791,-3.999 -4.266,-5.9c-9.039,-11.482 -25.577,-13.679 -37.301,-4.956c-11.724,8.724 -14.37,25.196 -5.968,37.153c0.856,1.313 1.749,2.606 2.63,3.915c0.88,1.308 1.741,2.624 2.583,3.944Z" style="fill:#fff;fill-opacity:0.58;"/></svg>