<?xml version="1.0" encoding="UTF-8" standalone="no"?><!DOCTYPE svg PUBLIC "-//W3C//DTD SVG 1.1//EN" "http://www.w3.org/Graphics/SVG/1.1/DTD/svg11.dtd"><svg width="100%" height="100%" viewBox="0 0 448 448" version="1.1" xmlns="http://www.w3.org/2000/svg" xmlns:xlink="http://www.w3.org/1999/xlink" xml:space="preserve" xmlns:serif="http://www.serif.com/" style="fill-rule:evenodd;clip-rule:evenodd;stroke-linejoin:round;stroke-miterlimit:2;"><path d="M100.28,447.99l-92.88,0l-0,-299.1l92.88,0l0,299.1Zm-46.49,-339.9c-29.7,0 -53.79,-24.6 -53.79,-54.3c-0,-29.508 24.282,-53.79 53.79,-53.79c29.508,0 53.79,24.282 53.79,53.79c0,29.7 -24.1,54.3 -53.79,54.3Zm394.21,339.9l-92.78,0l-0,-145.6c-0,-34.7 -0.7,-79.2 -48.29,-79.2c-48.29,0 -55.69,37.7 -55.69,76.7l-0,148.1l-92.78,0l-0,-299.1l89.08,0l-0,40.8l1.3,0c12.4,-23.5 42.69,-48.3 87.88,-48.3c94,0 111.28,61.9 111.28,142.3l0,164.3Z" style="fill:#fff;fill-rule:nonzero;"/></svg>