<?xml version="1.0" encoding="UTF-8" standalone="no"?><!DOCTYPE svg PUBLIC "-//W3C//DTD SVG 1.1//EN" "http://www.w3.org/Graphics/SVG/1.1/DTD/svg11.dtd"><svg width="100%" height="100%" viewBox="0 0 1867 1867" version="1.1" xmlns="http://www.w3.org/2000/svg" xmlns:xlink="http://www.w3.org/1999/xlink" xml:space="preserve" xmlns:serif="http://www.serif.com/" style="fill-rule:evenodd;clip-rule:evenodd;stroke-linejoin:round;stroke-miterlimit:2;"><path d="M417.833,1866.62l-387,0l0,-1246.25l387,0l0,1246.25Zm-193.708,-1416.25c-123.75,0 -224.125,-102.5 -224.125,-226.25c-0,-122.95 101.175,-224.125 224.125,-224.125c122.95,0 224.125,101.175 224.125,224.125c0,123.75 -100.417,226.25 -224.125,226.25Zm1642.54,1416.25l-386.584,0l0,-606.667c0,-144.583 -2.916,-330 -201.208,-330c-201.208,0 -232.042,157.084 -232.042,319.584l0,617.083l-386.583,0l0,-1246.25l371.167,0l-0,170l5.416,0c51.667,-97.917 177.875,-201.25 366.167,-201.25c391.667,0 463.667,257.917 463.667,592.917l-0,684.583Z" style="fill-rule:nonzero;stroke:#fff;stroke-width:4.17px;"/></svg>